<svg xmlns="http://www.w3.org/2000/svg" xmlns:xlink="http://www.w3.org/1999/xlink" viewBox="0 0 301.83 41"><defs><style>.cls-1{fill:url(#radial-gradient);}.cls-2{fill:none;stroke:#000;stroke-miterlimit:10;}</style><radialGradient id="radial-gradient" cx="109.91" cy="21.86" r="65.88" gradientTransform="matrix(1, 0.01, 0, 0.2, 0.08, 15.88)" gradientUnits="userSpaceOnUse"><stop offset="0" stop-color="#ff0"/><stop offset="1" stop-color="#ff0" stop-opacity="0"/></radialGradient></defs><g id="Layer_2" data-name="Layer 2"><g id="Layer_1-2" data-name="Layer 1"><ellipse class="cls-1" cx="109.91" cy="21.86" rx="68.59" ry="12.78"/><path d="M20.82,18.56a1.22,1.22,0,0,1,.68.16.62.62,0,0,1,.21.52.64.64,0,0,1-.2.5.92.92,0,0,1-.6.16H17.06v3.17a3.54,3.54,0,0,0,.41,2.06,1.72,1.72,0,0,0,1.38.49,5.61,5.61,0,0,0,2.07-.5,6,6,0,0,1,1.49-.51.62.62,0,0,1,.45.19.63.63,0,0,1,.19.47.74.74,0,0,1-.23.54,2.37,2.37,0,0,1-.8.46,13.79,13.79,0,0,1-1.67.54A6.59,6.59,0,0,1,19,27a4.3,4.3,0,0,1-1.87-.36A2.43,2.43,0,0,1,16,25.56a2.71,2.71,0,0,1-.27-.79,9.26,9.26,0,0,1-.08-1.4V19.9H14a.84.84,0,0,1-.58-.16.62.62,0,0,1-.18-.5.59.59,0,0,1,.24-.54,2.63,2.63,0,0,1,1.06-.14H15.6V16.11a.86.86,0,0,1,.18-.6.69.69,0,0,1,.54-.2.64.64,0,0,1,.58.24,2.25,2.25,0,0,1,.16,1.08v1.93Z"/><path d="M26.33,25.47V15.74h-.19a1.79,1.79,0,0,1-.88-.15.56.56,0,0,1-.25-.53.67.67,0,0,1,.2-.52.85.85,0,0,1,.56-.17h1.45a.68.68,0,0,1,.4.11.34.34,0,0,1,.14.28v4.31a5.36,5.36,0,0,1,1.37-1,3.45,3.45,0,0,1,1.41-.31,2.91,2.91,0,0,1,2.26.9,3.47,3.47,0,0,1,.82,2.46v4.31h.45a1.22,1.22,0,0,1,.69.15.59.59,0,0,1,.21.5.7.7,0,0,1-.19.52.86.86,0,0,1-.57.17H31.67a.89.89,0,0,1-.6-.15.71.71,0,0,1-.16-.54.58.58,0,0,1,.2-.51,1.31,1.31,0,0,1,.74-.14h.34V21.52a2.52,2.52,0,0,0-.51-1.7,1.83,1.83,0,0,0-1.47-.58,2.52,2.52,0,0,0-1.71.65,2.07,2.07,0,0,0-.74,1.63v3.95h.33a1.39,1.39,0,0,1,.77.14.61.61,0,0,1,.2.51.71.71,0,0,1-.16.54.87.87,0,0,1-.6.15H25.77a.8.8,0,0,1-.55-.17.67.67,0,0,1-.19-.52.55.55,0,0,1,.23-.51,1.72,1.72,0,0,1,.87-.14Z"/><path d="M38.36,22.84A2.9,2.9,0,0,0,39.29,25a3.37,3.37,0,0,0,2.32.75,5.85,5.85,0,0,0,2.42-.6,6.59,6.59,0,0,1,1.59-.59.66.66,0,0,1,.47.18.58.58,0,0,1,.19.44.76.76,0,0,1-.2.51,1.91,1.91,0,0,1-.64.44,9.77,9.77,0,0,1-2,.71,8.63,8.63,0,0,1-2,.24A4.8,4.8,0,0,1,38,25.8a4.38,4.38,0,0,1-1.3-3.31,4.51,4.51,0,0,1,1.37-3.41,5.06,5.06,0,0,1,3.59-1.3A4.73,4.73,0,0,1,45,19a3.85,3.85,0,0,1,1.32,2.94.93.93,0,0,1-.22.72,2.44,2.44,0,0,1-1.22.18H38.36Zm0-1.25h6.18a2.81,2.81,0,0,0-.94-1.82,3,3,0,0,0-2-.69,3.38,3.38,0,0,0-2.12.67A3.1,3.1,0,0,0,38.41,21.59Z"/><path d="M60.3,21.64v3.07h2.24a1.36,1.36,0,0,1,.91.24,1,1,0,0,1,.27.79,1.07,1.07,0,0,1-.27.81,1.36,1.36,0,0,1-.91.24H57.23a1.4,1.4,0,0,1-.93-.24,1,1,0,0,1-.28-.81,1,1,0,0,1,.27-.79,1.44,1.44,0,0,1,.94-.24H58V20.1h-.41a1.33,1.33,0,0,1-.92-.25,1,1,0,0,1-.28-.8,1,1,0,0,1,.27-.8,1.42,1.42,0,0,1,.92-.23h2a.58.58,0,0,1,.4.11.34.34,0,0,1,.15.3v1.4A7.78,7.78,0,0,1,62,18.24,4.14,4.14,0,0,1,64,17.77a2.38,2.38,0,0,1,1.49.42A1.35,1.35,0,0,1,66,19.33a1.15,1.15,0,0,1-.38.9,1.35,1.35,0,0,1-1,.36,2.21,2.21,0,0,1-1-.31,2.23,2.23,0,0,0-.81-.32,2.06,2.06,0,0,0-1.07.41A9.64,9.64,0,0,0,60.3,21.64Z"/><path d="M69.81,23a2.65,2.65,0,0,0,1,1.57,3.08,3.08,0,0,0,1.88.52A5.2,5.2,0,0,0,75,24.49a5.74,5.74,0,0,1,1.39-.58.71.71,0,0,1,.57.27,1,1,0,0,1,.22.67q0,.88-1.32,1.53a7.26,7.26,0,0,1-3.26.65,5.38,5.38,0,0,1-3.74-1.29,4.27,4.27,0,0,1-1.44-3.33,4.25,4.25,0,0,1,1.44-3.31,5.38,5.38,0,0,1,3.74-1.29A4.9,4.9,0,0,1,76,19a3.85,3.85,0,0,1,1.35,3,.9.9,0,0,1-.28.77,2,2,0,0,1-1.11.21Zm5.12-1.49a2,2,0,0,0-.83-1.36,2.87,2.87,0,0,0-1.74-.49,2.82,2.82,0,0,0-1.67.46,2.46,2.46,0,0,0-.88,1.39Z"/><path d="M82.26,25.9v2.58h1.21a1.44,1.44,0,0,1,.93.25,1.06,1.06,0,0,1,.28.81,1,1,0,0,1-.28.79,1.47,1.47,0,0,1-.93.23h-4a1.4,1.4,0,0,1-.92-.23,1,1,0,0,1-.26-.79,1.05,1.05,0,0,1,.27-.81,1.36,1.36,0,0,1,.91-.25H80V20.1h-.15a1,1,0,0,1-.77-.27,1.1,1.1,0,0,1-.26-.78,1.07,1.07,0,0,1,.26-.8A1.46,1.46,0,0,1,80,18h1.47a.67.67,0,0,1,.41.1.35.35,0,0,1,.13.29v.68a3.11,3.11,0,0,1,1.17-1,3.56,3.56,0,0,1,1.55-.33A4.44,4.44,0,0,1,88,19a4.18,4.18,0,0,1,1.29,3.14A4.54,4.54,0,0,1,88,25.44a4.17,4.17,0,0,1-3.13,1.3,4.72,4.72,0,0,1-1.44-.22A3.45,3.45,0,0,1,82.26,25.9Zm2.2-6.09a2,2,0,0,0-1.55.7,2.61,2.61,0,0,0-.61,1.77,2.63,2.63,0,0,0,.61,1.78,2,2,0,0,0,1.55.69,2,2,0,0,0,1.55-.7,2.56,2.56,0,0,0,.61-1.77,2.6,2.6,0,0,0-.6-1.77A2,2,0,0,0,84.46,19.81Z"/><path d="M95.74,17.81a5.36,5.36,0,0,1,3.74,1.29,4.25,4.25,0,0,1,1.44,3.31,4.27,4.27,0,0,1-1.44,3.33,6.05,6.05,0,0,1-7.47,0,4.27,4.27,0,0,1-1.44-3.33A4.25,4.25,0,0,1,92,19.1,5.39,5.39,0,0,1,95.74,17.81Zm0,2a2.45,2.45,0,0,0-1.83.73,2.55,2.55,0,0,0-.71,1.86,2.63,2.63,0,0,0,.71,1.88,2.61,2.61,0,0,0,3.66,0,2.56,2.56,0,0,0,.73-1.88,2.52,2.52,0,0,0-.72-1.86A2.46,2.46,0,0,0,95.74,19.81Z"/><path d="M107,21.64v3.07h2.24a1.39,1.39,0,0,1,.92.24,1,1,0,0,1,.27.79,1.07,1.07,0,0,1-.27.81,1.39,1.39,0,0,1-.92.24h-5.31a1.4,1.4,0,0,1-.93-.24,1.07,1.07,0,0,1-.28-.81A1,1,0,0,1,103,25a1.42,1.42,0,0,1,.94-.24h.72V20.1h-.41a1.33,1.33,0,0,1-.92-.25,1,1,0,0,1-.27-.8,1,1,0,0,1,.26-.8,1.42,1.42,0,0,1,.92-.23h2a.61.61,0,0,1,.4.11.36.36,0,0,1,.14.3v1.4a7.78,7.78,0,0,1,1.93-1.59,4.14,4.14,0,0,1,1.93-.47,2.38,2.38,0,0,1,1.49.42,1.36,1.36,0,0,1,.56,1.14,1.18,1.18,0,0,1-.38.9,1.38,1.38,0,0,1-1,.36,2.18,2.18,0,0,1-1-.31,2.19,2.19,0,0,0-.82-.32,2.06,2.06,0,0,0-1.07.41A9.64,9.64,0,0,0,107,21.64Z"/><path d="M118.43,18.55h2.9a1.4,1.4,0,0,1,.93.24,1,1,0,0,1,.28.78,1,1,0,0,1-.28.81,1.38,1.38,0,0,1-.93.25h-2.9v2.43a2.32,2.32,0,0,0,.32,1.41,1.36,1.36,0,0,0,1.1.38,4.77,4.77,0,0,0,1.75-.43,4.43,4.43,0,0,1,1.34-.43.85.85,0,0,1,.67.31,1.06,1.06,0,0,1,.28.75c0,.48-.44.93-1.32,1.33a7.22,7.22,0,0,1-3,.6,5.32,5.32,0,0,1-1.72-.26,2.7,2.7,0,0,1-1.16-.76,2.36,2.36,0,0,1-.45-.91,8.26,8.26,0,0,1-.13-1.78V20.63h-.9a1.3,1.3,0,0,1-.91-.25,1,1,0,0,1-.27-.81,1,1,0,0,1,.26-.79,1.46,1.46,0,0,1,.92-.23h.9V16.33a1.29,1.29,0,0,1,.27-.93,1.67,1.67,0,0,1,1.79,0,1.29,1.29,0,0,1,.27.93Z"/><path d="M128.18,23a2.59,2.59,0,0,0,.95,1.57,3.09,3.09,0,0,0,1.89.52,5.16,5.16,0,0,0,2.32-.57,5.74,5.74,0,0,1,1.39-.58.72.72,0,0,1,.58.27,1,1,0,0,1,.22.67q0,.88-1.32,1.53a7.27,7.27,0,0,1-3.27.65,5.4,5.4,0,0,1-3.74-1.29,4.27,4.27,0,0,1-1.44-3.33,4.25,4.25,0,0,1,1.44-3.31,5.4,5.4,0,0,1,3.74-1.29,4.88,4.88,0,0,1,3.4,1.21,3.85,3.85,0,0,1,1.35,3,.93.93,0,0,1-.27.77,2,2,0,0,1-1.12.21Zm5.12-1.49a2.08,2.08,0,0,0-.83-1.36,2.88,2.88,0,0,0-1.75-.49,2.79,2.79,0,0,0-1.66.46,2.36,2.36,0,0,0-.88,1.39Z"/><path d="M142,21.64v3.07h2.24a1.36,1.36,0,0,1,.91.24,1,1,0,0,1,.28.79,1,1,0,0,1-.28.81,1.36,1.36,0,0,1-.91.24h-5.31a1.4,1.4,0,0,1-.93-.24,1,1,0,0,1-.28-.81A1,1,0,0,1,138,25a1.45,1.45,0,0,1,.94-.24h.73V20.1h-.41a1.33,1.33,0,0,1-.92-.25,1,1,0,0,1-.27-.8,1,1,0,0,1,.26-.8,1.42,1.42,0,0,1,.92-.23h2a.57.57,0,0,1,.39.11.34.34,0,0,1,.15.3v1.4a7.78,7.78,0,0,1,1.93-1.59,4.14,4.14,0,0,1,1.93-.47,2.38,2.38,0,0,1,1.49.42,1.35,1.35,0,0,1,.55,1.14,1.15,1.15,0,0,1-.38.9,1.35,1.35,0,0,1-1,.36,2.21,2.21,0,0,1-1-.31,2.16,2.16,0,0,0-.81-.32,2.06,2.06,0,0,0-1.07.41A9.64,9.64,0,0,0,142,21.64Z"/><path d="M151.6,26.66a1.86,1.86,0,0,1-.51.29,1.4,1.4,0,0,1-.54.1.66.66,0,0,1-.57-.22,1.43,1.43,0,0,1-.17-.82V24.75a1.45,1.45,0,0,1,.21-.89.89.89,0,0,1,.72-.26,1.06,1.06,0,0,1,.92.54,3.35,3.35,0,0,0,.35.44,3.07,3.07,0,0,0,1.08.63,4.36,4.36,0,0,0,1.41.21,2,2,0,0,0,1.09-.27.81.81,0,0,0,.41-.69c0-.52-.73-.87-2.2-1.07l-.76-.1a4.84,4.84,0,0,1-2.46-.9,2.22,2.22,0,0,1-.8-1.8,2.46,2.46,0,0,1,1-2.07,4.52,4.52,0,0,1,2.77-.73,8,8,0,0,1,1.27.1,9.78,9.78,0,0,1,1.33.31,1.23,1.23,0,0,1,.42-.35,1.06,1.06,0,0,1,.5-.12.75.75,0,0,1,.6.24,1.18,1.18,0,0,1,.2.73v1.17a.89.89,0,0,1-.21.63.76.76,0,0,1-.59.22A2.91,2.91,0,0,1,155.7,20a3.24,3.24,0,0,0-1.9-.67,2.32,2.32,0,0,0-1.15.24.74.74,0,0,0-.4.67c0,.44.57.74,1.71.89l.77.09a6.73,6.73,0,0,1,3,.94,2.19,2.19,0,0,1,.81,1.85,2.63,2.63,0,0,1-1.06,2.22,5,5,0,0,1-3,.78,10.08,10.08,0,0,1-2.82-.39Z"/><path d="M162,15.67h1.87a.31.31,0,0,1,.19.06.13.13,0,0,1,.07.12.53.53,0,0,1,0,.13.42.42,0,0,1,0,.1l-2.34,4.53a.46.46,0,0,1-.17.21.29.29,0,0,1-.2.07h-.15l-.6-.22a.36.36,0,0,1-.2-.12.25.25,0,0,1-.08-.18c0-.07,0-.11,0-.13s0,0,0-.07l1.11-4a.72.72,0,0,1,.19-.37A.58.58,0,0,1,162,15.67Z"/><path d="M181.66,18.87v0a.56.56,0,0,1,.18-.46.85.85,0,0,1,.56-.15.58.58,0,0,1,.53.23,1.94,1.94,0,0,1,.15.94v1.77a.72.72,0,0,1-.18.53.78.78,0,0,1-.54.17.72.72,0,0,1-.44-.14,2.09,2.09,0,0,1-.45-.62,3.35,3.35,0,0,0-1.11-1.16,2.85,2.85,0,0,0-1.5-.4,3.36,3.36,0,0,0-2.4.88,3,3,0,0,0-.93,2.26,3.16,3.16,0,0,0,.89,2.31,3.06,3.06,0,0,0,2.28.9,4,4,0,0,0,1.21-.18,3.77,3.77,0,0,0,1.09-.52l.48-.35a1.83,1.83,0,0,1,1-.51.65.65,0,0,1,.67.67c0,.5-.48,1-1.42,1.53a6.18,6.18,0,0,1-3,.78A4.75,4.75,0,0,1,175.25,26a4.35,4.35,0,0,1-1.37-3.29,4.4,4.4,0,0,1,1.36-3.3,4.72,4.72,0,0,1,3.42-1.33,5.51,5.51,0,0,1,1.45.2A8.46,8.46,0,0,1,181.66,18.87Z"/><path d="M195.46,22.7A4.35,4.35,0,0,1,194.07,26a5.65,5.65,0,0,1-7.19,0,4.32,4.32,0,0,1-1.39-3.32,4.3,4.3,0,0,1,1.39-3.32,5.64,5.64,0,0,1,7.18,0A4.33,4.33,0,0,1,195.46,22.7Zm-5,3.28a3.28,3.28,0,0,0,2.4-.93,3.32,3.32,0,1,0-4.79,0A3.26,3.26,0,0,0,190.47,26Z"/><path d="M201.51,16h-1.62a2.63,2.63,0,0,1-1.15-.15.55.55,0,0,1-.23-.53.67.67,0,0,1,.19-.52.86.86,0,0,1,.57-.17h3.13a.68.68,0,0,1,.4.11.34.34,0,0,1,.14.28V25.74h3a.78.78,0,0,1,.53.15.69.69,0,0,1,.17.5.71.71,0,0,1-.17.54.89.89,0,0,1-.6.15h-7a.86.86,0,0,1-.57-.17.67.67,0,0,1-.19-.52.58.58,0,0,1,.2-.49.92.92,0,0,1,.6-.16h2.63Z"/><path d="M213.18,16h-1.62a2.66,2.66,0,0,1-1.15-.15.57.57,0,0,1-.23-.53.67.67,0,0,1,.19-.52.86.86,0,0,1,.57-.17h3.13a.66.66,0,0,1,.4.11.31.31,0,0,1,.14.28V25.74h3a.75.75,0,0,1,.52.15.69.69,0,0,1,.17.5.71.71,0,0,1-.16.54.92.92,0,0,1-.61.15h-7a.83.83,0,0,1-.56-.17.67.67,0,0,1-.2-.52.6.6,0,0,1,.2-.49.92.92,0,0,1,.6-.16h2.63Z"/><path d="M222.28,23.11a2.9,2.9,0,0,0,.93,2.12,3.37,3.37,0,0,0,2.32.75,5.85,5.85,0,0,0,2.42-.6,6.59,6.59,0,0,1,1.59-.59A.66.66,0,0,1,230,25a.58.58,0,0,1,.19.44.76.76,0,0,1-.2.51,1.91,1.91,0,0,1-.64.44,9.19,9.19,0,0,1-2,.71,8.63,8.63,0,0,1-2,.24,4.78,4.78,0,0,1-3.46-1.24,4.38,4.38,0,0,1-1.3-3.31A4.51,4.51,0,0,1,222,19.35a5.06,5.06,0,0,1,3.59-1.3,4.73,4.73,0,0,1,3.33,1.22,3.85,3.85,0,0,1,1.32,2.94.93.93,0,0,1-.22.72,2.44,2.44,0,0,1-1.22.18h-6.52Zm.05-1.25h6.18a2.78,2.78,0,0,0-.95-1.82,2.9,2.9,0,0,0-2-.69,3.38,3.38,0,0,0-2.12.67A3.1,3.1,0,0,0,222.33,21.86Z"/><path d="M240,18.87v0a.56.56,0,0,1,.18-.46.87.87,0,0,1,.56-.15.6.6,0,0,1,.54.23,1.94,1.94,0,0,1,.15.94v1.77a.72.72,0,0,1-.18.53.82.82,0,0,1-.55.17.74.74,0,0,1-.44-.14,2.53,2.53,0,0,1-.45-.62,3.18,3.18,0,0,0-1.11-1.16,2.84,2.84,0,0,0-1.49-.4,3.39,3.39,0,0,0-2.41.88,3,3,0,0,0-.93,2.26,3.16,3.16,0,0,0,.89,2.31,3.08,3.08,0,0,0,2.29.9,4.07,4.07,0,0,0,1.21-.18,4,4,0,0,0,1.09-.52l.48-.35a1.77,1.77,0,0,1,1-.51.63.63,0,0,1,.66.67c0,.5-.47,1-1.42,1.53a6.14,6.14,0,0,1-3,.78A4.77,4.77,0,0,1,233.61,26a4.65,4.65,0,0,1,0-6.59A4.69,4.69,0,0,1,237,18.07a5.63,5.63,0,0,1,1.45.2A8.38,8.38,0,0,1,240,18.87Z"/><path d="M251.43,18.83a1.22,1.22,0,0,1,.68.16.62.62,0,0,1,.21.52.64.64,0,0,1-.2.5.92.92,0,0,1-.6.16h-3.84v3.17a3.55,3.55,0,0,0,.4,2.06,1.72,1.72,0,0,0,1.38.49,5.61,5.61,0,0,0,2.07-.5,6.11,6.11,0,0,1,1.49-.51.62.62,0,0,1,.45.19.63.63,0,0,1,.19.47.74.74,0,0,1-.23.54,2.37,2.37,0,0,1-.8.46,13.79,13.79,0,0,1-1.67.54,6.59,6.59,0,0,1-1.4.17,4.33,4.33,0,0,1-1.87-.36,2.43,2.43,0,0,1-1.13-1.06,2.71,2.71,0,0,1-.27-.79,9.26,9.26,0,0,1-.08-1.4V20.17H244.6A.84.84,0,0,1,244,20a.62.62,0,0,1-.18-.5.57.57,0,0,1,.25-.54,2.53,2.53,0,0,1,1-.14h1.07V16.38a.86.86,0,0,1,.18-.6.7.7,0,0,1,.54-.2.64.64,0,0,1,.58.24,2.21,2.21,0,0,1,.17,1.08v1.93Z"/><path d="M261.39,25.74h3.05a.84.84,0,0,1,.55.15.69.69,0,0,1,.17.5.71.71,0,0,1-.16.54,1,1,0,0,1-.62.15H257a.86.86,0,0,1-.57-.17.7.7,0,0,1-.19-.52.6.6,0,0,1,.2-.49.92.92,0,0,1,.6-.16H260v-6.1H258.1a1,1,0,0,1-.6-.17.66.66,0,0,1-.2-.51.6.6,0,0,1,.19-.49.83.83,0,0,1,.57-.17h2.78a.74.74,0,0,1,.4.1.34.34,0,0,1,.15.29Zm-1.76-10.17a2.8,2.8,0,0,1,.19-1.3.94.94,0,0,1,.79-.26,1,1,0,0,1,.78.22,1.84,1.84,0,0,1,.19,1.06,1.86,1.86,0,0,1-.17,1,1.13,1.13,0,0,1-.8.2,1.19,1.19,0,0,1-.79-.18A1.09,1.09,0,0,1,259.63,15.57Z"/><path d="M267.83,19.64a1.73,1.73,0,0,1-.86-.15.73.73,0,0,1,0-1,.83.83,0,0,1,.57-.17h2.66a1.2,1.2,0,0,1,.72.15.62.62,0,0,1,.18.51.58.58,0,0,1-.24.53,1.77,1.77,0,0,1-.87.15h-.35l2.47,6.15,2.74-6.15h-.57a2.19,2.19,0,0,1-1-.15A.54.54,0,0,1,273,19a.62.62,0,0,1,.18-.51,1.2,1.2,0,0,1,.72-.15h2.93a.83.83,0,0,1,.57.17.6.6,0,0,1,.19.49.57.57,0,0,1-.23.53,1.7,1.7,0,0,1-.86.15h-.17l-3.13,6.93a1.67,1.67,0,0,1-.47.68,1.18,1.18,0,0,1-.68.16,1.11,1.11,0,0,1-.63-.15,1.56,1.56,0,0,1-.46-.69Z"/><path d="M280.64,23.11a2.9,2.9,0,0,0,.93,2.12,3.39,3.39,0,0,0,2.32.75,5.85,5.85,0,0,0,2.42-.6,6.92,6.92,0,0,1,1.59-.59.64.64,0,0,1,.47.18.58.58,0,0,1,.19.44.72.72,0,0,1-.2.51,2,2,0,0,1-.63.44,9.4,9.4,0,0,1-2,.71,8.76,8.76,0,0,1-2,.24,4.82,4.82,0,0,1-3.47-1.24,4.38,4.38,0,0,1-1.3-3.31,4.48,4.48,0,0,1,1.38-3.41,5,5,0,0,1,3.59-1.3,4.72,4.72,0,0,1,3.32,1.22,3.85,3.85,0,0,1,1.32,2.94.9.9,0,0,1-.22.72,2.39,2.39,0,0,1-1.21.18h-6.53Zm.05-1.25h6.18a2.77,2.77,0,0,0-.94-1.82,2.92,2.92,0,0,0-2-.69,3.43,3.43,0,0,0-2.13.67A3.1,3.1,0,0,0,280.69,21.86Z"/><polyline class="cls-2" points="13.36 0.5 0.5 0.5 0.5 40.5 13.36 40.5"/><polyline class="cls-2" points="288.47 0.5 301.33 0.5 301.33 40.5 288.47 40.5"/></g></g></svg>